<svg width="85" height="69" viewBox="0 0 85 69" fill="none" xmlns="http://www.w3.org/2000/svg">
<path d="M13.1442 21.2035C18.8885 19.8404 22.4462 14.0537 21.0904 8.27857C19.7346 2.50339 13.9788 -1.07333 8.23442 0.289738C2.49005 1.65281 -1.0676 7.43949 0.288189 13.2146C1.64399 18.9898 7.39981 22.5665 13.1442 21.2035Z" fill="#4258ED"/>
<path d="M10.688 23.7796C4.78872 23.7808 0.0033532 28.5881 0.0033532 34.5237V67.9915H21.3727V34.5237C21.3727 28.5925 16.5918 23.7808 10.688 23.7796Z" fill="#4258ED"/>
<path fill-rule="evenodd" clip-rule="evenodd" d="M25.7969 0.0961647H50.8258C69.4991 0.0961647 84.6367 15.3193 84.6367 34.0927C84.6367 52.8662 69.4991 68.0848 50.8258 68.0848H25.7969V0.0961647ZM47.1619 44.8325H51.7009V44.8369C57.6056 44.8369 62.3878 40.0291 62.3878 34.0927C62.3878 28.1563 57.6012 23.3485 51.7009 23.3485H47.1619V44.8325Z" fill="#4258ED"/>
</svg>
